Coordinates
version=1
nRows=23
nColumns=38
inDegrees=no

Units are S.I. units (second, meters, Newtons, ...)
If the header above contains a line with 'inDegrees', this indicates whether rotational values are in degrees (yes) or radians (no).

endheader
time	pelvis_tilt	pelvis_list	pelvis_rotation	pelvis_tx	pelvis_ty	pelvis_tz	hip_flexion_r	hip_adduction_r	hip_rotation_r	knee_angle_r	ankle_angle_r	subtalar_angle_r	mtp_angle_r	hip_flexion_l	hip_adduction_l	hip_rotation_l	knee_angle_l	ankle_angle_l	subtalar_angle_l	mtp_angle_l	lumbar_extension	lumbar_bending	lumbar_rotation	arm_flex_r	arm_add_r	arm_rot_r	elbow_flex_r	pro_sup_r	wrist_flex_r	wrist_dev_r	arm_flex_l	arm_add_l	arm_rot_l	elbow_flex_l	pro_sup_l	wrist_flex_l	wrist_dev_l
0	-0.49828	1.42316	-0.847944	0.367495	1.49881	0.950869	0.466788	-0.0240107	-0.0771263	0.68981	-0.251317	0	0	-0.232687	-0.0443625	-0.0950032	0.173599	-0.131649	0	0	-0.406874	0.142087	0.0040374	-0.147984	-0.485164	0.419866	0.778723	0.912583	0	0	0.00608134	-0.306182	0.410223	0.637799	1.14489	0	0
0.01	-0.486915	1.42801	-0.864249	0.367382	1.49185	0.949457	0.462638	-0.0220668	-0.0590564	0.627121	-0.25249	0	0	-0.237808	-0.0401204	-0.1007	0.176123	-0.125074	0	0	-0.407881	0.136453	0.00948475	-0.151258	-0.48471	0.406822	0.7864	0.91954	0	0	0.00926771	-0.304879	0.404116	0.639368	1.15222	0	0
0.02	-0.484351	1.4334	-0.862323	0.367968	1.48365	0.947952	0.457006	-0.0254394	-0.0595652	0.568532	-0.25036	0	0	-0.241583	-0.0392849	-0.0988217	0.179297	-0.119309	0	0	-0.403456	0.134024	0.00629776	-0.154157	-0.480939	0.398212	0.786393	0.9257	0	0	0.0112808	-0.30322	0.399358	0.635576	1.15874	0	0
0.03	-0.494463	1.4402	-0.843374	0.368816	1.47492	0.946337	0.446106	-0.0292177	-0.0651803	0.496271	-0.250273	0	0	-0.242641	-0.0400992	-0.0922749	0.183552	-0.113753	0	0	-0.395578	0.132828	-0.000635332	-0.156226	-0.475037	0.391952	0.781391	0.932184	0	0	0.0133628	-0.301447	0.3961	0.628728	1.16585	0	0
0.04	-0.489175	1.44501	-0.844515	0.369373	1.46631	0.944843	0.429983	-0.030229	-0.0623264	0.417716	-0.25618	0	0	-0.248005	-0.0394016	-0.0914686	0.186035	-0.108208	0	0	-0.391892	0.130143	-0.00297903	-0.159365	-0.471292	0.38449	0.780408	0.938991	0	0	0.0155212	-0.299468	0.392365	0.623691	1.17221	0	0
0.05	-0.465506	1.44823	-0.865338	0.369818	1.45765	0.943448	0.410357	-0.0313214	-0.0565485	0.339269	-0.267463	0	0	-0.256894	-0.0378465	-0.0930242	0.187622	-0.103543	0	0	-0.391335	0.12643	-0.00408805	-0.163459	-0.467782	0.374591	0.781563	0.946527	0	0	0.0168435	-0.298195	0.387728	0.621427	1.17784	0	0
0.06	-0.427927	1.45095	-0.901833	0.370131	1.4489	0.942032	0.389791	-0.0326988	-0.0453531	0.264905	-0.279359	0	0	-0.267497	-0.034995	-0.0971343	0.189177	-0.0999602	0	0	-0.392479	0.121326	-0.00413871	-0.168234	-0.464896	0.36396	0.784732	0.954869	0	0	0.0169984	-0.297499	0.382212	0.62163	1.18323	0	0
0.07	-0.377366	1.45338	-0.952939	0.370314	1.44004	0.940539	0.36826	-0.0347089	-0.0297247	0.193963	-0.290361	0	0	-0.279088	-0.0309072	-0.10334	0.191254	-0.0963985	0	0	-0.39477	0.114872	-0.00372566	-0.17404	-0.462106	0.351344	0.789969	0.968414	0	0	0.0152544	-0.297253	0.374108	0.624337	1.19107	0	0
0.08	-0.442272	1.45683	-0.893517	0.370565	1.43252	0.940196	0.421566	-0.03592	-0.0557349	0.309587	-0.231055	0	0	-0.278107	-0.0350262	-0.105853	0.196234	-0.0957224	0	0	-0.392523	0.119055	0.00351139	-0.163681	-0.468885	0.371111	0.78245	0.947874	0	0	0.0264549	-0.288518	0.379008	0.60442	1.19144	0	0
0.09	-0.307398	1.46069	-1.01213	0.371356	1.42098	0.937329	0.329385	-0.0417261	-0.0229974	0.0728619	-0.315333	0	0	-0.294894	-0.0294382	-0.10164	0.198981	-0.0893564	0	0	-0.387032	0.106381	-0.0145877	-0.175488	-0.465098	0.374213	0.78867	0.936645	0	0	0.0131038	-0.303861	0.387739	0.623056	1.18439	0	0
0.1	-0.283061	1.46482	-1.02779	0.372042	1.41101	0.935725	0.316365	-0.0456464	-0.0306102	0.0380428	-0.323647	0	0	-0.300204	-0.0311748	-0.0959123	0.205024	-0.0869506	0	0	-0.381399	0.103717	-0.0231789	-0.177311	-0.461818	0.377574	0.784388	0.934585	0	0	0.0105491	-0.306547	0.39181	0.621559	1.18296	0	0
0.11	-0.361737	1.46418	-0.955898	0.372103	1.40333	0.935981	0.367046	-0.0418498	-0.0623185	0.174954	-0.257155	0	0	-0.301111	-0.0388473	-0.0976608	0.213189	-0.0867158	0	0	-0.384506	0.111459	-0.0149307	-0.166824	-0.466152	0.388599	0.776742	0.928691	0	0	0.020002	-0.294203	0.38527	0.601668	1.19127	0	0
0.12	-0.347004	1.46593	-0.9646	0.37258	1.39335	0.934663	0.360734	-0.0431215	-0.0711722	0.173984	-0.251968	0	0	-0.306535	-0.0423301	-0.0947498	0.223096	-0.0853855	0	0	-0.381837	0.11063	-0.0199751	-0.170293	-0.463929	0.387654	0.775554	0.927609	0	0	0.0173758	-0.293364	0.381158	0.599205	1.193	0	0
0.13	-0.340899	1.46691	-0.963614	0.373131	1.38312	0.933461	0.354406	-0.0428286	-0.0793887	0.177712	-0.250564	0	0	-0.311351	-0.0475433	-0.0906807	0.2349	-0.0833297	0	0	-0.379104	0.111529	-0.0263449	-0.174119	-0.46154	0.385617	0.774564	0.927117	0	0	0.0134701	-0.292719	0.376146	0.597564	1.19586	0	0
0.14	-0.33655	1.46651	-0.963866	0.373467	1.37284	0.932451	0.34956	-0.0399638	-0.0809795	0.18959	-0.25149	0	0	-0.317782	-0.0527736	-0.0889596	0.246215	-0.0821316	0	0	-0.378173	0.112838	-0.0301351	-0.178059	-0.460638	0.383609	0.775526	0.927464	0	0	0.00913898	-0.292341	0.372128	0.597552	1.19928	0	0
0.15	-0.334014	1.46455	-0.964044	0.373631	1.36242	0.931622	0.348708	-0.0354554	-0.0822517	0.218408	-0.250506	0	0	-0.325213	-0.059003	-0.0908003	0.259562	-0.0805974	0	0	-0.379368	0.114955	-0.033082	-0.182058	-0.460531	0.38105	0.778598	0.929537	0	0	0.00317851	-0.291552	0.364149	0.599263	1.20548	0	0
0.16	-0.336675	1.46292	-0.959738	0.373645	1.35164	0.930839	0.349382	-0.0297319	-0.0802622	0.252873	-0.2483	0	0	-0.332922	-0.0654668	-0.0924849	0.271531	-0.0809826	0	0	-0.379448	0.116775	-0.035762	-0.185811	-0.459631	0.379203	0.780057	0.933082	0	0	-0.00381798	-0.290617	0.354906	0.60078	1.21124	0	0
0.17	-0.344717	1.46369	-0.949352	0.373676	1.34051	0.929888	0.360861	-0.0264072	-0.0845084	0.316296	-0.225336	0	0	-0.337461	-0.0715167	-0.0935509	0.285312	-0.080345	0	0	-0.378893	0.118104	-0.04047	-0.197914	-0.443338	0.332202	0.78021	0.996373	0	0	-0.0156415	-0.284708	0.321005	0.604507	1.23789	0	0
0.18	-0.347347	1.46249	-0.943423	0.373764	1.32905	0.929264	0.351862	-0.0187755	-0.0751402	0.330541	-0.234211	0	0	-0.345377	-0.0783089	-0.091447	0.295472	-0.0845859	0	0	-0.376963	0.119937	-0.0445436	-0.202244	-0.442219	0.332322	0.780031	0.994302	0	0	-0.0227765	-0.284622	0.315258	0.604725	1.24069	0	0
0.19	-0.352735	1.46132	-0.93454	0.373853	1.3173	0.928653	0.342064	-0.0107947	-0.0684593	0.344153	-0.24007	0	0	-0.352106	-0.0858279	-0.0906286	0.307795	-0.0899934	0	0	-0.37463	0.122191	-0.0502371	-0.206354	-0.441347	0.333204	0.780383	0.993537	0	0	-0.0321017	-0.285465	0.308653	0.606853	1.2424	0	0
0.2	-0.363896	1.45976	-0.918507	0.373967	1.30524	0.928107	0.330173	-0.00270406	-0.0668972	0.348502	-0.241098	0	0	-0.357342	-0.0950347	-0.0894928	0.322403	-0.0974339	0	0	-0.371861	0.125478	-0.0584771	-0.209572	-0.440323	0.335925	0.779986	0.994098	0	0	-0.0439072	-0.287492	0.301309	0.610868	1.24436	0	0
0.21	-0.383729	1.45733	-0.892554	0.374084	1.29298	0.927718	0.318421	0.0049967	-0.0702996	0.344339	-0.245066	0	0	-0.360537	-0.106466	-0.0874792	0.340825	-0.10846	0	0	-0.369254	0.130372	-0.0700909	-0.210486	-0.439491	0.341658	0.778686	0.995631	0	0	-0.0580217	-0.288819	0.29001	0.615725	1.24732	0	0
0.22	-0.41567	1.45506	-0.854535	0.374125	1.2805	0.927453	0.309993	0.012898	-0.0731955	0.339452	-0.260214	0	0	-0.361003	-0.118601	-0.0818209	0.361399	-0.11975	0	0	-0.36481	0.136218	-0.0806483	-0.212009	-0.438752	0.34823	0.776568	0.997839	0	0	-0.0714249	-0.288334	0.277447	0.61829	1.25156	0	0
